<svg viewBox="0 0 256 256" xmlns="http://www.w3.org/2000/svg" preserveAspectRatio="xMidYMid"><path d="M201.731 255.654H53.586C24.07 255.654.23 231.814.23 202.3V53.586C.23 24.07 24.07.23 53.586.23H201.73c29.516 0 53.356 23.84 53.356 53.355v148.713c0 29.516-23.84 53.355-53.356 53.355z" fill="#F47721"/><path d="M202.299 71.75c2.27-1.704 5.108-3.406 7.379-5.11-1.135-3.973-3.406-7.378-5.676-10.784-2.838 1.135-5.109 2.838-7.947 3.973-1.703-1.135-3.405-2.838-5.676-3.973.568-2.838 1.135-6.244 1.703-9.082-3.973-1.135-7.946-2.838-11.92-3.405-1.135 2.838-1.703 5.676-2.838 8.514-2.27 0-4.54.568-6.243 1.135-1.703-2.27-3.406-5.108-5.109-7.379-3.973 1.135-7.379 3.406-10.784 6.244 1.135 2.838 2.27 5.676 3.973 8.514-1.703 1.703-2.838 3.406-3.973 5.108-2.839-.567-6.244-1.135-9.082-1.702l-3.406 11.92c2.838 1.135 5.676 2.27 8.514 2.837 0 2.27.568 4.541.568 6.812-2.27 1.703-5.109 3.405-7.379 5.108 1.135 3.973 3.406 7.38 6.244 10.785 2.838-1.135 5.676-2.838 8.514-3.973 1.703 1.702 3.405 2.838 5.108 3.973-.567 2.838-1.135 6.243-1.703 9.082 3.974 1.702 7.947 2.27 11.92 2.838.568-2.838 1.703-5.677 2.838-8.515 2.27 0 4.541-.567 6.812-.567 1.702 2.27 3.405 5.108 5.108 7.379 3.973-1.703 7.379-3.406 10.217-6.244-1.135-2.838-2.838-5.676-3.973-8.514 1.135-1.703 2.838-3.406 3.973-5.109 2.838.568 6.244 1.136 9.082 1.703 1.135-3.973 2.838-7.946 3.405-11.92-2.838-.567-5.676-1.702-8.514-2.838 0-2.27-.567-4.54-1.135-6.81zm-12.487 7.946c0 7.379-7.947 12.487-14.758 10.217-6.244-1.703-10.217-9.082-7.947-15.326 1.136-3.973 4.541-6.243 7.947-7.379 7.379-2.27 15.325 4.541 14.758 12.488z" fill="#FFF"/><circle fill="#F36D21" cx="177.324" cy="78.56" r="17.028"/><path d="M127.375 193.217c13.622-.567 22.704 9.082 33.489 14.758 15.893 8.514 31.218 6.811 43.138-7.379 5.676-6.811 8.514-13.622 8.514-21.001 0-6.812-2.838-14.19-7.947-20.434-11.92-14.758-27.245-14.758-43.138-6.812-5.676 2.839-10.784 7.38-17.028 10.217-14.758 6.812-28.948 6.244-42.003-5.676-13.055-12.487-17.596-26.677-9.65-43.138 2.839-5.676 6.812-11.352 9.65-17.028 9.082-16.46 10.785-32.921-4.54-45.976-6.245-5.676-13.623-7.947-20.435-7.947-6.811 0-14.19 2.838-21.001 7.947C40.53 63.235 38.828 80.83 49.612 96.156c15.893 22.137 17.596 42.003.568 64.14-10.784 14.19-10.784 30.65 2.838 43.706 6.811 6.811 14.19 9.65 21.57 9.65 7.378 0 15.325-2.839 22.704-7.38 9.649-6.243 18.163-14.19 30.083-13.055z" fill="#FFF"/></svg>