<svg xmlns="http://www.w3.org/2000/svg" viewBox="0 0 64 64">
    <g transform="matrix(1.511359 0 0 1.511359 -8.875494 -12.666734)">
        <path d="M44.548 40.964L28.182 50.42a2.26 2.26 0 0 1-2.273 0L9.543 40.964c-.705-.41-1.136-1.16-1.136-1.955v-18.91c0-.818.432-1.546 1.136-1.955L25.91 8.688a2.26 2.26 0 0 1 2.273 0l16.366 9.456c.705.41 1.137 1.16 1.137 1.955V39c-.023.796-.455 1.546-1.137 1.955z"
              fill="#8d6748" fill-rule="evenodd"/>
        <g fill="#fff">
            <path d="M27.023 11.938a1.28 1.28 0 0 1 .636.182l14.138 8.16a1.31 1.31 0 0 1 .636 1.114v16.32a1.31 1.31 0 0 1-.636 1.114l-14.138 8.16c-.205.114-.4.182-.636.182a1.22 1.22 0 0 1-.636-.182l-14.138-8.16a1.31 1.31 0 0 1-.636-1.114v-16.32a1.31 1.31 0 0 1 .636-1.114l14.138-8.16c.205-.114.432-.182.636-.182m0-.682c-.34 0-.682.1-.977.273l-14.138 8.16a1.93 1.93 0 0 0-.977 1.682v16.32c0 .705.364 1.34.977 1.682l14.138 8.16c.295.182.636.273.977.273s.682-.1.977-.273l14.138-8.16a1.93 1.93 0 0 0 .977-1.682V21.37c0-.705-.364-1.34-.977-1.682L28 11.53c-.295-.182-.636-.273-.977-.273zm2.01 10.114c0-.114-.1-.227-.227-.227h-4.273c-.114 0-.227.1-.227.227 0 .773.114 3.432 1.25 4.728.045.045.1.068.16.068h1.9a.21.21 0 0 0 .16-.068c1.137-1.273 1.25-3.932 1.25-4.728zm-1.682 4.137h-1.34a.21.21 0 0 1-.16-.068c-.773-.9-.864-2.728-.886-3.364 0-.114.1-.227.227-.227h3c.114 0 .227.1.227.227 0 .636-.114 2.432-.886 3.364-.068.045-.114.068-.182.068zm-.25-4.82s.818-.477.318-1.34c-.295-.455-.432-.84-.318-1-.295.364-.796.75-.25 1.568.182.205.273.636.25.773zm-.9.068s.546-.318.205-.9c-.205-.295-.295-.568-.205-.66-.205.25-.523.5-.16 1.068.114.114.16.4.16.5z"/>
            <path d="M28.057 23.394c-.1.614-.273 1.318-.66 1.773-.045.045-.1.068-.136.068h-1.137c-.045 0-.114-.023-.136-.068-.273-.34-.455-.796-.568-1.273 0 0 1.318.182 2.068-.1.546-.205.568-.4.568-.4zm-14.934 3.682h.84l1.387 2.137 1.387-2.137h.84v4.546h-.796v-3.25L15.35 30.5h-.023l-1.4-2.114v3.25h-.796zm8.57 4.614a2.64 2.64 0 0 1-.955-.182 2.17 2.17 0 0 1-.75-.5 2.12 2.12 0 0 1-.477-.75c-.114-.273-.182-.6-.182-.9v-.023c0-.318.068-.614.182-.9.114-.273.273-.523.5-.75a2.17 2.17 0 0 1 .75-.5c.295-.136.614-.182.955-.182a2.64 2.64 0 0 1 .955.182 2.17 2.17 0 0 1 .75.5 2.12 2.12 0 0 1 .477.75c.114.273.182.6.182.9v.023c0 .318-.068.614-.182.9-.114.273-.273.523-.5.75a2.17 2.17 0 0 1-.75.5c-.295.136-.614.182-.955.182zm0-.727c.227 0 .432-.045.614-.136a1.82 1.82 0 0 0 .477-.341c.136-.136.227-.318.318-.5a1.91 1.91 0 0 0 .114-.614v-.023c0-.227-.045-.432-.114-.636a1.54 1.54 0 0 0-.318-.523 1.82 1.82 0 0 0-.477-.341c-.182-.1-.386-.136-.614-.136a1.35 1.35 0 0 0-.614.136 1.82 1.82 0 0 0-.477.341c-.136.136-.227.318-.318.5a1.91 1.91 0 0 0-.114.614v.023c0 .227.045.432.114.636a1.54 1.54 0 0 0 .318.523 1.82 1.82 0 0 0 .477.341 1.44 1.44 0 0 0 .614.136zm6.228.727a2.32 2.32 0 0 1-.91-.182c-.274-.114-.523-.295-.727-.5a2.12 2.12 0 0 1-.477-.75c-.114-.295-.182-.6-.182-.9v-.023c0-.318.068-.636.182-.9a2.62 2.62 0 0 1 .477-.75 2.17 2.17 0 0 1 .75-.5 2.55 2.55 0 0 1 .955-.182c.205 0 .386.023.568.045l.477.136c.136.068.273.136.386.227l.34.295-.523.6a2.8 2.8 0 0 0-.568-.4 1.5 1.5 0 0 0-.705-.16 1.26 1.26 0 0 0-.591.136 1.82 1.82 0 0 0-.477.341c-.136.136-.227.318-.318.5a1.91 1.91 0 0 0-.114.614v.023c0 .227.045.432.114.636a1.54 1.54 0 0 0 .318.523c.136.136.295.273.477.34s.386.136.6.136c.273 0 .523-.045.705-.16a4.28 4.28 0 0 0 .591-.432l.523.523c-.114.136-.227.227-.364.34s-.273.182-.4.25a1.74 1.74 0 0 1-.477.16c-.205.045-.4.045-.614.045zm3.455-4.614h.796v1.887h2.182v-1.887h.796v4.546h-.796v-1.9H32.17v1.9h-.796zm7.296-.023h.727l2 4.57h-.84l-.455-1.1h-2.137l-.477 1.1h-.818zm1.136 2.773l-.773-1.818-.773 1.818h1.546zm-27.253 3.228h28.98v.25h-28.98zm28.98-8.546h-12.32c0 .1-.023.16-.023.25h12.342v-.25zm-28.98 0v.25H24.17c0-.1-.023-.16-.023-.25z"/>
        </g>
    </g>
</svg>