<?xml version="1.0" encoding="utf-8"?>
<!-- Generator: Adobe Illustrator 16.0.0, SVG Export Plug-In . SVG Version: 6.00 Build 0)  -->
<!DOCTYPE svg PUBLIC "-//W3C//DTD SVG 1.0//EN" "http://www.w3.org/TR/2001/REC-SVG-20010904/DTD/svg10.dtd">
<svg version="1.0" id="Layer_1" xmlns="http://www.w3.org/2000/svg" xmlns:xlink="http://www.w3.org/1999/xlink" x="0px" y="0px"
	 viewBox="0 0 800 800" enable-background="new 0 0 800 800" xml:space="preserve">
<g>
	<path d="M146.798,371.901c0-21.211-16.528-36.821-45.27-36.821H42.854l-28.74,129.84h32.689l9.917-44.627h19.19l18.917,44.627
		h32.598l-20.294-46.739C131.464,414.415,146.798,395.041,146.798,371.901z M94.459,393.113h-1.653H62.78l6.887-30.945H99.05
		c9.641,0,15.335,5.234,15.335,12.764C114.293,384.94,106.946,393.113,94.459,393.113z"/>
	<path d="M218.973,335.08l-75.938,129.747h32.597l12.671-21.486h60.421l4.774,21.486h32.598L257.538,335.08H218.973z
		 M204.188,416.254l28.007-47.842l10.559,47.842H204.188z"/>
	<path d="M385.632,335.08h-55.186l-28.74,129.747h32.504l10.009-44.627h36.455c31.127,0,50.044-23.322,50.044-47.932
		C430.718,350.415,413.454,335.08,385.632,335.08z M379.204,393.113h-2.386h-26.629l6.795-30.945h25.251
		c9.917,0,16.07,4.683,16.07,12.764C398.396,384.94,390.773,393.113,379.204,393.113z"/>
	<polygon points="492.149,335.08 459.366,335.08 430.628,464.92 463.314,464.92 	"/>
	<path fill="#E65824" d="M727.677,335.08c-7.623,0-84.939,0-103.027,0c1.56,1.561,3.122,3.213,4.498,4.958
		c11.57,13.866,17.631,31.312,17.631,50.504c0,29.564-12.579,56.29-32.779,74.284h63.08l29.938-73.918h-37.555l6.333-28.649h74.47
		L711.148,464.92c0,0,5.141,0,15.335,0c35.81,0.183,59.96-29.202,59.96-65.012C786.534,364.097,763.486,335.08,727.677,335.08z"/>
	<path d="M611.243,356.291c-11.293-13.498-29.75-21.119-51.604-21.119h-41.87L489.024,464.92h52.71
		c20.475,0,36.27-4.5,48.205-11.756c24.426-14.69,33.057-40.586,33.057-62.622C622.996,376.86,618.681,365.29,611.243,356.291z
		 M545.681,437.74h-17.996l16.709-75.481h16.988c18.733,0,29.202,13.958,29.202,31.313
		C590.584,416.987,573.778,437.74,545.681,437.74z"/>
</g>
</svg>
