<svg width="151" height="38" viewBox="0 0 151 38" fill="none" xmlns="http://www.w3.org/2000/svg">
<path d="M48.5568 11.9869H54.1122V26.5325H55.964V11.9869H61.5425V10.2734H48.5568V11.9869Z" fill="#141414"/>
<path d="M87.3459 14.7969C85.6411 14.7969 84.3896 15.4903 83.6231 16.8571C83.0257 15.4894 81.8981 14.7969 80.2691 14.7969C78.9532 14.7969 77.9092 15.2646 77.2301 16.154V14.9813H75.4935L75.5166 26.5379H77.2992V20.9786C77.2992 17.8944 78.1954 16.3951 80.0386 16.3951C81.6723 16.3951 82.5012 17.565 82.5012 19.8721V26.5379H84.2839V20.9786C84.2839 17.8944 85.2098 16.3951 87.1154 16.3951C89.5089 16.3951 89.509 18.7666 89.509 19.7799V26.5379H91.2916V19.3419C91.2916 16.3682 89.9277 14.7969 87.3459 14.7969Z" fill="#141414"/>
<path d="M66.7714 14.7969C63.2176 14.7969 61.6271 17.8205 61.6271 20.8172C61.6271 24.4046 63.719 26.7223 66.9558 26.7223C68.8202 26.7223 70.1159 26.1594 71.4279 24.7792L71.497 24.7062L70.2455 23.6113L70.1821 23.6795C69.2505 24.6726 68.3226 25.0779 66.9789 25.0779C64.8188 25.0779 63.4904 23.6612 63.4126 21.2821H71.717L71.7304 21.2014C71.7737 20.9411 71.8005 20.555 71.8005 20.1948C71.8015 18.78 71.3818 17.4738 70.6191 16.5161C69.724 15.3914 68.3937 14.7969 66.7714 14.7969ZM66.7714 16.326C68.6809 16.326 69.942 17.5371 70.064 19.4802C70.064 19.5983 70.0717 19.6896 70.0774 19.753H63.4174C63.5989 17.6985 64.9369 16.326 66.7714 16.326Z" fill="#141414"/>
<path d="M148.471 24.9613V10.2812H146.792V25.091C146.792 25.9266 147.487 26.6057 148.341 26.6057H151V24.9613H148.471Z" fill="#141414"/>
<path d="M137.759 14.7969C135.786 14.7969 134.29 15.5489 133.05 17.1626L132.994 17.2356L134.296 18.3295L134.356 18.246C135.274 16.9829 136.348 16.3951 137.736 16.3951C139.603 16.3951 140.591 17.4219 140.591 19.3649V19.7991H138.359C136.145 19.7991 134.882 20.0027 133.997 20.505C133.108 21.0573 132.638 21.9708 132.638 23.1454C132.638 25.3853 134.139 26.7223 136.653 26.7223C138.38 26.7223 139.723 26.1297 140.651 24.9598L140.734 26.5379H142.373V19.3649C142.373 17.9482 141.954 16.7841 141.158 15.9975C140.364 15.2118 139.188 14.7969 137.759 14.7969ZM140.591 21.2821V21.3474C140.591 23.7342 139.259 25.2162 137.114 25.2162C135.452 25.2162 134.421 24.4584 134.421 23.2376C134.421 22.6114 134.617 22.1398 135.006 21.8372C135.531 21.4223 136.412 21.2821 138.497 21.2821H140.591Z" fill="#141414"/>
<path d="M101.13 14.7734C99.6135 14.7734 98.3543 15.3104 97.4687 16.3294V14.9809H95.686V31.24H97.4687V25.1861C98.3552 26.1917 99.6154 26.7219 101.13 26.7219C104.304 26.7219 106.274 24.4331 106.274 20.7477C106.275 18.9679 105.804 17.4695 104.912 16.4149C104.005 15.3411 102.697 14.7734 101.13 14.7734ZM104.492 20.7477C104.492 22.0357 104.176 23.1229 103.576 23.8933C102.949 24.6981 102.023 25.1236 100.9 25.1236C98.6981 25.1236 97.3304 23.4466 97.3304 20.7477C97.3304 18.0487 98.6981 16.3717 100.9 16.3717C103.115 16.3717 104.492 18.0487 104.492 20.7477Z" fill="#141414"/>
<path d="M114.638 14.7969C113.053 14.7969 111.629 15.3991 110.628 16.4941C109.644 17.5708 109.102 19.0816 109.102 20.7481C109.102 22.4164 109.644 23.9311 110.628 25.0136C111.63 26.1152 113.055 26.7223 114.638 26.7223C117.86 26.7223 120.198 24.2096 120.198 20.7481C120.198 19.0855 119.649 17.5746 118.651 16.4931C117.642 15.3991 116.217 14.7969 114.638 14.7969ZM118.415 20.7481C118.415 21.9861 118.062 23.0955 117.417 23.8735C116.74 24.6918 115.779 25.124 114.638 25.124C112.358 25.124 110.885 23.4067 110.885 20.7481C110.885 18.1038 112.358 16.3951 114.638 16.3951C116.933 16.3951 118.415 18.1038 118.415 20.7481Z" fill="#141414"/>
<path d="M128.976 14.7969C127.963 14.7969 126.605 15.0908 125.707 16.4403V14.9813H123.924V26.5379H125.707V20.1026C125.707 17.8301 126.837 16.4182 128.654 16.4182C129.12 16.4182 129.583 16.5258 130.114 16.7563L130.191 16.7899L131.069 15.3424L130.982 15.2944C130.382 14.9592 129.726 14.7969 128.976 14.7969Z" fill="#141414"/>
<path d="M25.3492 12.1905C24.4626 5.54681 22.218 0 18.7698 0C15.3226 0 13.078 5.54585 12.1905 12.1905C5.54681 13.077 0 15.3217 0 18.7698C0 22.217 5.54681 24.4617 12.1905 25.3492C13.077 31.9919 15.3217 37.5397 18.7698 37.5397C22.217 37.5397 24.4617 31.9928 25.3492 25.3492C31.9928 24.4617 37.5397 22.218 37.5397 18.7698C37.5397 15.3217 31.9919 13.077 25.3492 12.1905ZM11.9744 23.4128C5.61116 22.4936 1.9008 20.3902 1.9008 18.7689C1.9008 17.1476 5.61212 15.0441 11.9744 14.1249C11.8342 15.6569 11.7612 17.2206 11.7612 18.7689C11.7612 20.3172 11.8342 21.8828 11.9744 23.4128ZM18.7708 1.89984C20.3921 1.89984 22.4956 5.61116 23.4147 11.9734C21.8837 11.8332 20.3191 11.7602 18.7708 11.7602C17.2225 11.7602 15.6579 11.8332 14.1268 11.9734C15.046 5.6102 17.1495 1.89984 18.7708 1.89984ZM25.5662 23.4128C25.2531 23.4589 23.968 23.6088 23.6433 23.6414C23.6116 23.967 23.4599 25.2512 23.4147 25.5643C22.4956 31.9275 20.3921 35.6389 18.7708 35.6389C17.1495 35.6389 15.046 31.9275 14.1268 25.5643C14.0817 25.2512 13.9299 23.9661 13.8982 23.6414C13.7503 22.1334 13.661 20.5131 13.661 18.7689C13.661 17.0256 13.7503 15.4052 13.8982 13.8954C15.4062 13.7474 17.0265 13.6581 18.7708 13.6581C20.5141 13.6581 22.1344 13.7474 23.6433 13.8954C23.9689 13.9271 25.2531 14.0788 25.5662 14.124C31.9295 15.0431 35.6417 17.1476 35.6417 18.7679C35.6408 20.3882 31.9295 22.4936 25.5662 23.4128Z" fill="#141414"/>
</svg>
