<svg width="800" height="400" xmlns="http://www.w3.org/2000/svg">

 <g>
  <title>Layer 1</title>
  <g>
   <rect x="-141" y="-344" fill="white" height="1088" width="1088"/>
   <path fill="black" d="m328.88,191.86c-6.347,0 -12.04,-1.12 -17.08,-3.36c-5.04,-2.333 -9.053,-5.46 -12.04,-9.38c-2.893,-3.92 -4.48,-8.26 -4.76,-13.02l19.74,0c0.373,2.987 1.82,5.46 4.34,7.42c2.613,1.96 5.833,2.94 9.66,2.94c3.733,0 6.627,-0.747 8.68,-2.24c2.147,-1.493 3.22,-3.407 3.22,-5.74c0,-2.52 -1.307,-4.387 -3.92,-5.6c-2.52,-1.307 -6.58,-2.707 -12.18,-4.2c-5.787,-1.4 -10.547,-2.847 -14.28,-4.34c-3.64,-1.493 -6.813,-3.78 -9.52,-6.86c-2.613,-3.08 -3.92,-7.233 -3.92,-12.46c0,-4.293 1.213,-8.213 3.64,-11.76c2.52,-3.547 6.067,-6.347 10.64,-8.4c4.667,-2.053 10.127,-3.08 16.38,-3.08c9.24,0 16.613,2.333 22.12,7c5.507,4.573 8.54,10.78 9.1,18.62l-18.76,0c-0.28,-3.08 -1.587,-5.507 -3.92,-7.28c-2.24,-1.867 -5.273,-2.8 -9.1,-2.8c-3.547,0 -6.3,0.653 -8.26,1.96c-1.867,1.307 -2.8,3.127 -2.8,5.46c0,2.613 1.307,4.62 3.92,6.02c2.613,1.307 6.673,2.66 12.18,4.06c5.6,1.4 10.22,2.847 13.86,4.34c3.64,1.493 6.767,3.827 9.38,7c2.707,3.08 4.107,7.187 4.2,12.32c0,4.48 -1.26,8.493 -3.78,12.04c-2.427,3.547 -5.973,6.347 -10.64,8.4c-4.573,1.96 -9.94,2.94 -16.1,2.94z"/>
   <path fill="black" d="m364.149,151.82c0,-8.027 1.633,-15.027 4.9,-21c3.267,-6.067 7.793,-10.733 13.58,-14c5.787,-3.36 12.413,-5.04 19.88,-5.04c9.613,0 17.547,2.427 23.8,7.28c6.347,4.76 10.593,11.48 12.74,20.16l-21.14,0c-1.12,-3.36 -3.033,-5.973 -5.74,-7.84c-2.613,-1.96 -5.88,-2.94 -9.8,-2.94c-5.6,0 -10.033,2.053 -13.3,6.16c-3.267,4.013 -4.9,9.753 -4.9,17.22c0,7.373 1.633,13.113 4.9,17.22c3.267,4.013 7.7,6.02 13.3,6.02c7.933,0 13.113,-3.547 15.54,-10.64l21.14,0c-2.147,8.4 -6.393,15.073 -12.74,20.02c-6.347,4.947 -14.28,7.42 -23.8,7.42c-7.467,0 -14.093,-1.633 -19.88,-4.9c-5.787,-3.36 -10.313,-8.027 -13.58,-14c-3.267,-6.067 -4.9,-13.113 -4.9,-21.14z"/>
   <path fill="black" d="m490.788,111.92c5.88,0 11.106,1.307 15.68,3.92c4.573,2.52 8.12,6.3 10.64,11.34c2.613,4.947 3.92,10.92 3.92,17.92l0,45.5l-19.6,0l0,-42.84c0,-6.16 -1.54,-10.873 -4.62,-14.14c-3.08,-3.36 -7.28,-5.04 -12.6,-5.04c-5.414,0 -9.707,1.68 -12.88,5.04c-3.08,3.267 -4.62,7.98 -4.62,14.14l0,42.84l-19.6,0l0,-103.6l19.6,0l0,35.7c2.52,-3.36 5.88,-5.973 10.08,-7.84c4.2,-1.96 8.866,-2.94 14,-2.94z"/>
   <path fill="black" d="m576.346,111.92c9.24,0 16.707,2.94 22.4,8.82c5.694,5.787 8.54,13.907 8.54,24.36l0,45.5l-19.6,0l0,-42.84c0,-6.16 -1.54,-10.873 -4.62,-14.14c-3.08,-3.36 -7.28,-5.04 -12.6,-5.04c-5.413,0 -9.706,1.68 -12.88,5.04c-3.08,3.267 -4.62,7.98 -4.62,14.14l0,42.84l-19.6,0l0,-77.56l19.6,0l0,9.66c2.614,-3.36 5.927,-5.973 9.94,-7.84c4.107,-1.96 8.587,-2.94 13.44,-2.94z"/>
   <path fill="black" d="m691.725,150.14c0,2.8 -0.187,5.32 -0.56,7.56l-56.7,0c0.467,5.6 2.427,9.987 5.88,13.16c3.453,3.173 7.7,4.76 12.74,4.76c7.28,0 12.46,-3.127 15.54,-9.38l21.14,0c-2.24,7.467 -6.533,13.627 -12.88,18.48c-6.347,4.76 -14.14,7.14 -23.38,7.14c-7.467,0 -14.187,-1.633 -20.16,-4.9c-5.88,-3.36 -10.5,-8.073 -13.86,-14.14c-3.267,-6.067 -4.9,-13.067 -4.9,-21c0,-8.027 1.633,-15.073 4.9,-21.14c3.267,-6.067 7.84,-10.733 13.72,-14c5.88,-3.267 12.647,-4.9 20.3,-4.9c7.373,0 13.953,1.587 19.74,4.76c5.88,3.173 10.407,7.7 13.58,13.58c3.267,5.787 4.9,12.46 4.9,20.02zm-20.3,-5.6c-0.093,-5.04 -1.913,-9.053 -5.46,-12.04c-3.547,-3.08 -7.887,-4.62 -13.02,-4.62c-4.853,0 -8.96,1.493 -12.32,4.48c-3.267,2.893 -5.273,6.953 -6.02,12.18l36.82,0z"/>
   <path fill="black" d="m719.331,87l0,103.6l-19.6,0l0,-103.6l19.6,0z"/>
   <path fill="black" d="m751.996,87l0,103.6l-19.6,0l0,-103.6l19.6,0z"/>
   <path fill="black" d="m295,254.059c0,-6.081 1.19,-11.474 3.571,-16.179c2.452,-4.706 5.77,-8.326 9.954,-10.859c4.184,-2.534 8.836,-3.801 13.958,-3.801c3.895,0 7.61,0.869 11.145,2.606c3.534,1.665 6.347,3.909 8.439,6.733l0,-28.559l15.365,0l0,80.355l-15.365,0l0,-8.904c-1.875,2.968 -4.508,5.357 -7.898,7.167c-3.391,1.81 -7.322,2.715 -11.794,2.715c-5.05,0 -9.666,-1.303 -13.85,-3.91c-4.184,-2.606 -7.502,-6.261 -9.954,-10.967c-2.381,-4.778 -3.571,-10.243 -3.571,-16.397zm47.175,0.217c0,-3.692 -0.721,-6.841 -2.164,-9.447c-1.442,-2.678 -3.39,-4.705 -5.842,-6.081c-2.453,-1.448 -5.086,-2.171 -7.899,-2.171c-2.813,0 -5.41,0.687 -7.791,2.063c-2.38,1.375 -4.328,3.402 -5.842,6.081c-1.443,2.606 -2.164,5.719 -2.164,9.338c0,3.62 0.721,6.805 2.164,9.556c1.514,2.679 3.462,4.742 5.842,6.19c2.453,1.447 5.05,2.171 7.791,2.171c2.813,0 5.446,-0.687 7.899,-2.063c2.452,-1.448 4.4,-3.475 5.842,-6.081c1.443,-2.678 2.164,-5.864 2.164,-9.556z"/>
   <path fill="black" d="m382.505,224.197l0,60.158l-15.148,0l0,-60.158l15.148,0z"/>
   <path fill="black" d="m416.082,223.22c4.472,0 8.404,0.905 11.794,2.715c3.39,1.737 6.059,4.018 8.007,6.841l0,-8.579l15.256,0l0,60.593c0,5.574 -1.118,10.533 -3.354,14.876c-2.236,4.416 -5.59,7.891 -10.063,10.425c-4.472,2.606 -9.882,3.909 -16.23,3.909c-8.512,0 -15.509,-1.991 -20.991,-5.972c-5.41,-3.982 -8.475,-9.411 -9.197,-16.289l15.04,0c0.794,2.751 2.489,4.923 5.086,6.516c2.668,1.665 5.878,2.497 9.629,2.497c4.401,0 7.971,-1.339 10.712,-4.018c2.741,-2.606 4.112,-6.587 4.112,-11.944l0,-9.339c-1.948,2.823 -4.653,5.176 -8.115,7.058c-3.39,1.883 -7.286,2.824 -11.686,2.824c-5.049,0 -9.666,-1.303 -13.85,-3.91c-4.183,-2.606 -7.501,-6.261 -9.954,-10.967c-2.38,-4.778 -3.571,-10.243 -3.571,-16.397c0,-6.081 1.191,-11.474 3.571,-16.179c2.453,-4.706 5.735,-8.326 9.846,-10.859c4.184,-2.534 8.837,-3.801 13.958,-3.801zm19.801,31.056c0,-3.692 -0.722,-6.841 -2.164,-9.447c-1.443,-2.678 -3.39,-4.705 -5.843,-6.081c-2.453,-1.448 -5.085,-2.171 -7.899,-2.171c-2.813,0 -5.41,0.687 -7.79,2.063c-2.38,1.375 -4.328,3.402 -5.843,6.081c-1.443,2.606 -2.164,5.719 -2.164,9.338c0,3.62 0.721,6.805 2.164,9.556c1.515,2.679 3.463,4.742 5.843,6.19c2.452,1.447 5.049,2.171 7.79,2.171c2.814,0 5.446,-0.687 7.899,-2.063c2.453,-1.448 4.4,-3.475 5.843,-6.081c1.442,-2.678 2.164,-5.864 2.164,-9.556z"/>
   <path fill="black" d="m476.213,224.197l0,60.158l-15.148,0l0,-60.158l15.148,0z"/>
   <path fill="black" d="m503.947,236.685l0,29.102c0,2.027 0.469,3.511 1.406,4.452c1.01,0.869 2.669,1.303 4.978,1.303l7.033,0l0,12.813l-9.522,0c-12.768,0 -19.151,-6.225 -19.151,-18.677l0,-28.993l-7.142,0l0,-12.488l7.142,0l0,-14.876l15.256,0l0,14.876l13.417,0l0,12.488l-13.417,0z"/>
   <path fill="black" d="m519.495,254.059c0,-6.081 1.19,-11.474 3.57,-16.179c2.453,-4.706 5.735,-8.326 9.846,-10.859c4.184,-2.534 8.837,-3.801 13.958,-3.801c4.473,0 8.368,0.905 11.686,2.715c3.39,1.81 6.095,4.09 8.115,6.841l0,-8.579l15.256,0l0,60.158l-15.256,0l0,-8.795c-1.948,2.823 -4.653,5.176 -8.115,7.058c-3.39,1.81 -7.322,2.715 -11.794,2.715c-5.049,0 -9.666,-1.303 -13.85,-3.91c-4.111,-2.606 -7.393,-6.261 -9.846,-10.967c-2.38,-4.778 -3.57,-10.243 -3.57,-16.397zm47.175,0.217c0,-3.692 -0.721,-6.841 -2.164,-9.447c-1.443,-2.678 -3.39,-4.705 -5.843,-6.081c-2.452,-1.448 -5.085,-2.171 -7.898,-2.171c-2.814,0 -5.41,0.687 -7.791,2.063c-2.38,1.375 -4.328,3.402 -5.843,6.081c-1.442,2.606 -2.164,5.719 -2.164,9.338c0,3.62 0.722,6.805 2.164,9.556c1.515,2.679 3.463,4.742 5.843,6.19c2.453,1.447 5.049,2.171 7.791,2.171c2.813,0 5.446,-0.687 7.898,-2.063c2.453,-1.448 4.4,-3.475 5.843,-6.081c1.443,-2.678 2.164,-5.864 2.164,-9.556z"/>
   <path fill="black" d="m607,204l0,80.355l-15.148,0l0,-80.355l15.148,0z"/>
   <circle fill="black" r="12.5" cy="146.5" cx="782.5"/>
   <path fill="#5CC7D3" d="m29.69,299.528l28.599,0c7.9,0 15.48,-3.116 21.093,-8.673l24.557,-24.312c11.604,-11.488 11.877,-30.155 0.615,-41.994l-40.871,-42.969c-5.668,-5.958 -13.53,-9.332 -21.751,-9.332l-30.932,0l63.7,66.68c3.704,3.876 3.695,9.98 -0.02,13.841l-44.99,46.759z"/>
   <path fill="#5CC7D3" d="m197.176,220.28l-28.599,0c-7.9,0 -15.48,-3.116 -21.092,-8.673l-24.557,-24.312c-11.604,-11.488 -11.878,-30.155 -0.616,-41.995l40.871,-42.968c5.668,-5.959 13.531,-9.332 21.751,-9.332l30.932,0l-63.7,66.679c-3.704,3.877 -3.695,9.981 0.02,13.842l44.99,46.759z"/>
  </g>
 </g>
</svg>