<svg version="1.1" xmlns="http://www.w3.org/2000/svg" viewBox="0 0 1042.4348886255061 1144.806377827927" width="2084.8697772510122" height="2289.612755655854">
  <!-- svg-source:excalidraw -->
  
  <defs>
    <style>
      @font-face {
        font-family: "Virgil";
        src: url("https://excalidraw.com/Virgil.woff2");
      }
      @font-face {
        font-family: "Cascadia";
        src: url("https://excalidraw.com/Cascadia.woff2");
      }
    </style>
  </defs>
  <rect x="0" y="0" width="1042.4348886255061" height="1144.806377827927" fill="#ffffff"></rect><g stroke-linecap="round" transform="translate(10 140.6351256554023) rotate(0 197.5 26)"><path d="M-0.51 0.27 C141.3 -1.17, 282 -2.78, 394.8 0.14 M0.26 0.48 C120.92 1.27, 241.4 1.44, 395.32 0.24 M393.94 -0.76 C396.57 13.01, 394.09 24.55, 396.85 51.8 M394.97 -0.4 C396.05 17.41, 395.52 34.96, 395.84 52.78 M395.03 51.95 C272.58 54.03, 150.32 53.68, 0.8 52.79 M394.67 52.35 C293.54 53.36, 192.86 52.92, 0.26 51.8 M1.61 52.31 C0.45 33.75, 0.58 10.72, 1.81 -1.33 M-0.44 52.72 C0.97 37.73, 0.03 24.47, -0.26 0.91" stroke="#a61e4d" stroke-width="1" fill="none"></path></g><g transform="translate(15 155.1351256554023) rotate(0 192.5 11.5)"><text x="192.5" y="17" font-family="Virgil, Segoe UI Emoji" font-size="20px" fill="#a61e4d" text-anchor="middle" style="white-space: pre;" direction="ltr">PlatformBuilder.bootstrap()</text></g><g stroke-linecap="round" transform="translate(106.97395064718035 235.91469185225534) rotate(0 97 24.500000000000014)"><path d="M-1.88 -0.56 C65.71 -3.09, 131.7 0.71, 192.29 0.25 M0.64 -0.89 C64.29 2.6, 130.16 0.81, 193.1 -0.24 M194.84 -1.16 C192.74 13.91, 192.85 28.36, 192.58 48.73 M193.84 -0.44 C195 17.24, 193.62 34.07, 193.78 49.85 M195.18 49.54 C150.62 49.1, 108.42 48.19, -0.51 50.93 M193.81 48.92 C144.2 48.38, 93.44 48.05, 0.6 49.89 M1.92 50.23 C-1.73 33.04, -0.93 13.84, -0.55 0.11 M0.98 49.83 C0.67 32.35, -0.76 15.21, -0.86 0.54" stroke="#000000" stroke-width="1" fill="none"></path></g><g transform="translate(111.97395064718035 248.91469185225534) rotate(0 92 11.5)"><text x="92" y="17" font-family="Virgil, Segoe UI Emoji" font-size="20px" fill="#000000" text-anchor="middle" style="white-space: pre;" direction="ltr">load injector</text></g><g stroke-linecap="round"><g transform="translate(207.58487234122492 202.6351256554023) rotate(0 0.12215169078203303 14.439734487560457)"><path d="M0.74 1.08 C0.64 5.84, 0.45 23.96, 0.14 28.28 M-0.33 0.6 C-0.6 5.06, -0.18 22.09, -0.5 26.68" stroke="#000000" stroke-width="1" fill="none"></path></g><g transform="translate(207.58487234122492 202.6351256554023) rotate(0 0.12215169078203303 14.439734487560457)"><path d="M-3.7 14.46 C-2.23 17.65, -2.12 22.36, -0.83 26.9 M-4.77 14.4 C-3.2 17.82, -2.24 21.05, -0.58 27.2" stroke="#000000" stroke-width="1" fill="none"></path></g><g transform="translate(207.58487234122492 202.6351256554023) rotate(0 0.12215169078203303 14.439734487560457)"><path d="M5.63 14.63 C3.75 17.82, 0.49 22.46, -0.83 26.9 M4.56 14.57 C3.53 17.87, 1.9 21.06, -0.58 27.2" stroke="#000000" stroke-width="1" fill="none"></path></g></g><g stroke-linecap="round" transform="translate(106.98019567258893 739.558327436655) rotate(0 109 29)"><path d="M-1.22 -0.02 C58.51 -0.56, 115.78 -0.67, 217.69 1.54 M-0.15 0.49 C54.91 0.99, 109.1 0.84, 217.65 0.1 M219.07 0.33 C218.75 13.66, 217.53 25.02, 219.43 59.77 M218.36 -0.13 C219.05 23.45, 218.59 45.15, 217.94 57.61 M217.95 59.41 C159.97 57.23, 103.72 58.47, -0.13 56.95 M218.29 57.52 C132.63 58.43, 44.85 58.4, -0.75 57.38 M1.77 58.16 C-2.03 44.47, 1.4 31.23, -0.09 -0.02 M0.5 58.92 C0.01 37.38, -0.58 15.44, 0.01 0.8" stroke="#000000" stroke-width="1" fill="none"></path></g><g transform="translate(111.98019567258893 757.058327436655) rotate(0 104 11.5)"><text x="104" y="17" font-family="Virgil, Segoe UI Emoji" font-size="20px" fill="#000000" text-anchor="middle" style="white-space: pre;" direction="ltr">load routes</text></g><g stroke-linecap="round" transform="translate(637.4348886255061 139.81715924954938) rotate(0 197.5 26)"><path d="M0.13 0.23 C96.95 -0.28, 196.76 -0.75, 394.86 -0.26 M-0.31 -0.12 C153.4 -1.37, 305.59 -1.67, 395.24 -0.09 M396.55 1.85 C397.07 18.96, 396.73 40.59, 393.59 50.33 M394.32 -0.74 C394.93 20.83, 394.63 39.31, 394.1 51.19 M394.86 52.72 C299.42 51.1, 202.65 52.57, -0.07 51.59 M395.24 52.05 C265.71 51.76, 137.65 52.32, 0.01 51.69 M0.99 52.81 C-0.37 40.46, -0.92 24.37, -0.78 0.47 M-0.02 52.67 C-0.85 36.49, 0.12 21.53, 0.95 0.64" stroke="#a61e4d" stroke-width="1" fill="none"></path></g><g transform="translate(642.4348886255061 154.31715924954938) rotate(0 192.5 11.5)"><text x="192.5" y="17" font-family="Virgil, Segoe UI Emoji" font-size="20px" fill="#a61e4d" text-anchor="middle" style="white-space: pre;" direction="ltr">PlatformBuilder.listen()</text></g><g stroke-linecap="round"><g transform="translate(206.59895074346434 292.0973894583291) rotate(0 2.1553092075330653 220.66093168578746)"><path d="M-0.44 -0.21 C0.48 73.29, 4.17 367.76, 4.75 441.23 M1.53 -1.36 C2.44 72.31, 3.65 368.88, 4.32 442.68" stroke="#000000" stroke-width="1" fill="none"></path></g><g transform="translate(206.59895074346434 292.0973894583291) rotate(0 2.1553092075330653 220.66093168578746)"><path d="M-6.47 416.19 C-3.85 419.98, -2.47 427.7, 2.42 444.59 M-6.3 414.73 C-2.31 425.01, 0.08 433.67, 4.28 441.74" stroke="#000000" stroke-width="1" fill="none"></path></g><g transform="translate(206.59895074346434 292.0973894583291) rotate(0 2.1553092075330653 220.66093168578746)"><path d="M14.05 416.06 C11.82 419.81, 8.36 427.56, 2.42 444.59 M14.22 414.6 C11.12 424.77, 6.42 433.48, 4.28 441.74" stroke="#000000" stroke-width="1" fill="none"></path></g></g><g stroke-linecap="round" transform="translate(192.34905013900675 573.9833871317508) rotate(0 106.5 24)"><path d="M0.33 1.41 L214.9 0.79 L212.99 46.61 L1.27 46.61" stroke="none" stroke-width="0" fill="#ffffff"></path><path d="M-1.17 -0.79 C70.75 -0.16, 139.72 -1, 212.58 -0.73 M-0.15 0.14 C64.07 0.11, 127.72 0.64, 213.27 0.43 M211.86 -1.6 C214.54 13.88, 213.78 27.78, 211.77 48.51 M213.04 -0.66 C212.07 11.41, 213.55 25.56, 212.31 48.02 M211.76 49.01 C136.19 50.12, 61.63 50.51, 1.57 48.67 M213.47 48.78 C163.62 45.67, 114.24 46.83, -0.01 47.92 M-1.47 48.7 C0.96 34.89, -1.58 18.91, -1.71 -1.44 M-0.38 47.06 C-0.13 35.22, 0.48 24.47, 0.94 -0.28" stroke="#1864ab" stroke-width="1" fill="none"></path></g><g transform="translate(197.34905013900675 586.4833871317508) rotate(0 101.5 11.5)"><text x="101.5" y="17" font-family="Virgil, Segoe UI Emoji" font-size="20px" fill="#1864ab" text-anchor="middle" style="white-space: pre;" direction="ltr">$onInit()</text></g><g stroke-linecap="round" transform="translate(190.34905013900675 449.48338713175076) rotate(0 106.5 22)"><path d="M0.63 1.21 L213.99 -0.69 L212.05 42.66 L1 44.04" stroke="none" stroke-width="0" fill="#ffffff"></path><path d="M-0.21 0.96 C72.13 -2.62, 144.62 -1.77, 211.71 -0.29 M-0.06 -0.34 C50.21 -2.07, 99.77 -1.39, 212.23 -0.29 M214.97 -1.16 C214.32 15, 212.46 32.14, 212.6 42.49 M212.04 -0.73 C213.25 9.81, 213.59 17.01, 213.24 44.45 M211.47 42.59 C135.64 43.69, 56.83 44.41, -0.63 44.99 M212.94 43.92 C161.26 44.04, 109 43.72, 0.31 44.41 M-0.21 44.91 C-0.18 30.37, -0.21 17.67, -1.13 -1.1 M0.86 44.14 C0.77 26.89, 0.14 8.64, 0.47 0.2" stroke="#0b7285" stroke-width="1" fill="none"></path></g><g transform="translate(195.34905013900675 459.98338713175076) rotate(0 101.5 11.5)"><text x="101.5" y="17" font-family="Virgil, Segoe UI Emoji" font-size="20px" fill="#0b7285" text-anchor="middle" style="white-space: pre;" direction="ltr">init sync providers</text></g><g stroke-linecap="round" transform="translate(192.34905013900675 510.98338713175076) rotate(0 106 24)"><path d="M1.16 0.18 L211.39 0.98 L211.3 50 L-0.43 49.2" stroke="none" stroke-width="0" fill="#ffffff"></path><path d="M1.15 -0.58 C71.36 0.72, 144.51 0.97, 210.73 0.09 M-0.57 0.33 C82.3 1.94, 163.33 0.55, 212.25 0.04 M210.39 -1.28 C213.39 16.21, 211.31 28.8, 212.56 48.1 M211.34 -0.54 C211.47 12.83, 212.63 25.87, 212.13 47.87 M213.13 47.9 C157.57 45.4, 101.58 48.14, -0.27 49.34 M211.14 47.46 C169.46 45.72, 125.13 46.53, -0.52 48.5 M-1.37 49.5 C2.17 31.09, -0.87 17.03, -1.88 -0.18 M-0.41 48.88 C1.1 33.03, 0.85 17.19, -0.66 0.42" stroke="#1864ab" stroke-width="1" fill="none"></path></g><g transform="translate(197.34905013900675 523.4833871317508) rotate(0 101 11.5)"><text x="101" y="17" font-family="Virgil, Segoe UI Emoji" font-size="20px" fill="#1864ab" text-anchor="middle" style="white-space: pre;" direction="ltr">$beforeInit()</text></g><g stroke-linecap="round" transform="translate(191.34905013900675 634.9833871317508) rotate(0 108.5 24)"><path d="M-1.99 -1.48 L216.49 -1.91 L217.03 49.18 L-1.15 47.47" stroke="none" stroke-width="0" fill="#ffffff"></path><path d="M1.63 0.53 C77.72 3.18, 158.22 0.55, 218.41 0.88 M0.57 0.63 C44.94 0.09, 90.45 -0.65, 216.14 0.15 M215.24 -0.88 C215.78 12.3, 218.75 22, 218.3 48.44 M216.16 0.69 C217.34 9.84, 215.78 21.52, 217.57 48.03 M215.79 46.37 C154.67 48.74, 95.18 51.29, 1.63 49.48 M217.15 48.36 C169.36 47.31, 121.42 45.86, -0.47 48.83 M-1.94 47.09 C0.54 30.98, -1.78 9.46, 0.43 -1.51 M0.56 48.35 C0.39 31.47, -0.27 13.28, 0.33 -0.78" stroke="#1864ab" stroke-width="1" fill="none"></path></g><g transform="translate(196.34905013900675 647.4833871317508) rotate(0 103.5 11.5)"><text x="103.5" y="17" font-family="Virgil, Segoe UI Emoji" font-size="20px" fill="#1864ab" text-anchor="middle" style="white-space: pre;" direction="ltr">$afterInit()</text></g><g stroke-linecap="round" transform="translate(188.34905013900675 319.98338713175076) rotate(0 105.5 29)"><path d="M0.67 0.06 L209.3 -0.43 L210.54 58.84 L-0.18 56.08" stroke="none" stroke-width="0" fill="#ffffff"></path><path d="M-0.63 -0.01 C79.84 -1.14, 162.27 1.31, 209.87 0.85 M0.88 -0.61 C76.49 1.67, 154.71 0.34, 211.1 -0.33 M209.97 -1.2 C212.33 20.54, 213.48 44.25, 210.2 58.63 M211.81 -0.01 C210.89 13.8, 211.03 28.97, 210.42 57.35 M210.78 58.46 C129.09 59.38, 46.66 59.57, -0.35 59.67 M211.57 57.23 C134.13 56.97, 57.68 57.32, 0.43 57.48 M0.4 58.23 C-1.06 43.07, -1.3 27.8, -1.21 -1.06 M0.6 58.78 C-0.26 38.05, 0.06 17.68, 0.81 0.13" stroke="#0b7285" stroke-width="1" fill="none"></path></g><g transform="translate(193.34905013900675 325.98338713175076) rotate(0 100.5 23)"><text x="100.5" y="17" font-family="Virgil, Segoe UI Emoji" font-size="20px" fill="#0b7285" text-anchor="middle" style="white-space: pre;" direction="ltr">resolve </text><text x="100.5" y="40" font-family="Virgil, Segoe UI Emoji" font-size="20px" fill="#0b7285" text-anchor="middle" style="white-space: pre;" direction="ltr">configuration</text></g><g stroke-linecap="round" transform="translate(189.34905013900675 389.98338713175076) rotate(0 105.5 23)"><path d="M-1.53 0.94 L210.21 1.27 L211.42 44.48 L-0.05 47.18" stroke="none" stroke-width="0" fill="#ffffff"></path><path d="M-1.26 -1.37 C80.19 0.64, 158.66 1.53, 211.62 -1.1 M-0.64 -0.06 C60.66 -1.12, 121.42 -1.15, 210.72 -0.59 M211.1 -1.4 C211.29 17.44, 210.36 34.89, 211.5 47.54 M210.71 0.95 C210.38 13.71, 210.36 24.63, 210.18 45.81 M210.34 46.98 C161.65 46.82, 111.08 47.7, -1.35 45.73 M211.1 45.75 C168.56 48.2, 126.11 47.34, 0.31 45.49 M0.61 46.8 C0.21 26.63, 0.54 9.54, 0.9 -0.44 M0.76 46.83 C0.08 29.4, -1.04 12.15, -0.92 -0.2" stroke="#0b7285" stroke-width="1" fill="none"></path></g><g transform="translate(194.34905013900675 401.48338713175076) rotate(0 100.5 11.5)"><text x="100.5" y="17" font-family="Virgil, Segoe UI Emoji" font-size="20px" fill="#0b7285" text-anchor="middle" style="white-space: pre;" direction="ltr">init async providers</text></g><g stroke-linecap="round"><g transform="translate(209.55712650233522 809.8760930674858) rotate(0 1.3078701387341027 161.79577009383388)"><path d="M0.44 -0.19 C1.19 53.56, 2.86 269.4, 3.41 323.55 M-0.79 -1.34 C-0.14 53.11, 1.62 270.9, 2.24 324.93" stroke="#000000" stroke-width="1" fill="none"></path></g><g transform="translate(209.55712650233522 809.8760930674858) rotate(0 1.3078701387341027 161.79577009383388)"><path d="M3.52 316.71 C4.98 317, 6.45 318.49, 7.53 319.73 C8.61 320.96, 9.96 322.54, 10.01 324.13 C10.06 325.72, 8.6 327.97, 7.83 329.27 C7.06 330.58, 6.85 331.28, 5.4 331.95 C3.95 332.63, 0.65 333.92, -0.86 333.32 C-2.36 332.72, -2.92 330, -3.62 328.36 C-4.32 326.72, -5.36 325.14, -5.06 323.5 C-4.76 321.86, -3.55 319.56, -1.85 318.53 C-0.15 317.49, 3.96 317.59, 5.14 317.31 C6.33 317.04, 5.26 316.91, 5.26 316.86 M4.68 315.85 C6.57 316.08, 8.3 317.02, 9.2 318.4 C10.09 319.77, 10.26 322.34, 10.06 324.1 C9.86 325.85, 9.28 327.19, 7.99 328.92 C6.71 330.66, 4.05 333.91, 2.36 334.51 C0.67 335.1, -0.78 333.44, -2.15 332.5 C-3.53 331.55, -5.37 330.8, -5.91 328.85 C-6.45 326.91, -6.31 322.86, -5.39 320.84 C-4.47 318.82, -1.96 317.24, -0.37 316.72 C1.22 316.2, 3.64 317.67, 4.15 317.72 C4.66 317.78, 2.58 316.88, 2.69 317.05" stroke="none" stroke-width="0" fill="#000000"></path></g></g><g stroke-linecap="round" transform="translate(196.17262353367994 831.0831037450266) rotate(0 109 29)"><path d="M-1.82 1.34 L217.51 -0.26 L218.07 57.41 L-0.33 57.79" stroke="none" stroke-width="0" fill="#ffffff"></path><path d="M-0.12 0.91 C49.65 3.41, 102.21 1.04, 218.78 -1.04 M0.6 0.14 C60.31 -1.36, 119.05 -1.55, 218.72 0.77 M219.55 -1.34 C217.22 23.01, 218.49 44.44, 219.24 56.57 M218.77 0.36 C217.06 17.75, 217.52 34.77, 218.99 57.91 M216.81 57.27 C139.86 57.92, 57.97 57, 0.88 57.25 M218.45 58.2 C140.79 57.11, 63.27 56.66, 0.23 58.59 M-0.1 59.25 C-1.45 46.78, -1.25 34.24, 1.69 -0.2 M-0.02 58.76 C-0.47 35.69, 1.28 11.62, -0.32 -0.68" stroke="#1864ab" stroke-width="1" fill="none"></path></g><g transform="translate(201.17262353367994 848.5831037450266) rotate(0 104 11.5)"><text x="104" y="17" font-family="Virgil, Segoe UI Emoji" font-size="20px" fill="#1864ab" text-anchor="middle" style="white-space: pre;" direction="ltr">$beforeRoutesInit()</text></g><g stroke-linecap="round" transform="translate(197.67262353367994 963.0831037450266) rotate(0 109 29)"><path d="M-1.95 -0.25 L216.96 -0.81 L217.21 57.39 L-0.36 59.44" stroke="none" stroke-width="0" fill="#ffffff"></path><path d="M1.66 0.03 C53.98 -0.08, 109.15 0.47, 218 0.84 M0.82 -0.01 C54.32 0.39, 110.73 0, 217.4 -0.29 M218.57 1.3 C217.66 20.23, 215.87 41.76, 216.8 59.37 M217.29 0.05 C219.04 15.74, 217.32 32.86, 217.53 57.77 M217.89 58.22 C140.61 58.07, 61.27 59.54, -0.84 59.25 M217.32 58.47 C137.44 59.27, 54.57 58.79, 0.82 57.71 M-1.59 57.37 C1.71 39.66, 0.53 18.57, -0.13 -1.72 M0.77 57.93 C0.78 44.13, -0.19 28.97, 0.78 0.32" stroke="#1864ab" stroke-width="1" fill="none"></path></g><g transform="translate(202.67262353367994 980.5831037450266) rotate(0 104 11.5)"><text x="104" y="17" font-family="Virgil, Segoe UI Emoji" font-size="20px" fill="#1864ab" text-anchor="middle" style="white-space: pre;" direction="ltr">$onRoutesInit()</text></g><g stroke-linecap="round" transform="translate(195.67262353367994 898.0831037450266) rotate(0 109 29)"><path d="M-1.33 0.81 L217.22 -1.4 L216.29 58.83 L-1.45 59.94" stroke="none" stroke-width="0" fill="#ffffff"></path><path d="M-0.18 -0.7 C53.88 2.01, 104.99 -0.03, 216.94 -1.37 M-0.03 0.8 C67.46 -0.54, 136.09 -0.61, 218.7 0.5 M218.66 0.39 C215.63 16.45, 218.58 32.18, 218.49 56.04 M217.93 -0.68 C217.97 22.51, 218.8 42.09, 217.92 58.16 M217.26 56.59 C138.02 58.33, 62.21 58.22, 0.39 56.85 M217.99 57.52 C151.78 57.78, 87.39 58.45, -0.79 57.73 M1.82 56.02 C-1.28 36.76, 1.19 14.53, -1.76 -1.6 M-0.17 57.21 C0.93 35.4, 0.23 10.98, -0.53 -0.21" stroke="#0b7285" stroke-width="1" fill="none"></path></g><g transform="translate(200.67262353367994 915.5831037450266) rotate(0 104 11.5)"><text x="104" y="17" font-family="Virgil, Segoe UI Emoji" font-size="20px" fill="#0b7285" text-anchor="middle" style="white-space: pre;" direction="ltr">mount all controllers</text></g><g stroke-linecap="round" transform="translate(198.67262353367994 1031.0831037450266) rotate(0 109 29.000000000000057)"><path d="M-0.34 -0.33 L219.43 0.69 L216.61 57.85 L-0.35 56.45" stroke="none" stroke-width="0" fill="#ffffff"></path><path d="M0.26 0.19 C52.47 -1.96, 107.1 -1.17, 217.89 -0.42 M0.13 0.18 C84.05 1.47, 169.13 0.79, 218.31 -0.28 M217.78 0.64 C219.2 11, 218.31 22.26, 216.83 59.99 M218.59 -0.62 C218.56 23.2, 218.3 44.62, 217.96 57.11 M216.28 59.01 C142.12 57.59, 64.02 60.12, 1.62 59.46 M218.7 57.74 C151.55 57.48, 85.55 56.98, 0.79 57.48 M1.85 56.95 C-0.66 37.52, 0.2 15.28, 1.48 -0.64 M0.6 58.16 C1.09 36.23, -0.22 13.07, -0.55 -0.8" stroke="#1864ab" stroke-width="1" fill="none"></path></g><g transform="translate(203.67262353367994 1048.5831037450266) rotate(0 104 11.5)"><text x="104" y="17" font-family="Virgil, Segoe UI Emoji" font-size="20px" fill="#1864ab" text-anchor="middle" style="white-space: pre;" direction="ltr">$afterRoutesInit()</text></g><g stroke-linecap="round"><g transform="translate(725.7727266503321 1018.8940208409844) rotate(0 21.370800388458292 0.04314330920578868)"><path d="M0.33 -1 C7.67 -0.66, 36.65 0.9, 43.7 0.89 M-0.96 1.09 C6.32 1.21, 36.04 -0.53, 43.15 -0.77" stroke="#0b7285" stroke-width="4" fill="none"></path></g></g><g transform="translate(791.5315327463861 1005.8679714881647) rotate(0 28 13)"><text x="0" y="18" font-family="Virgil, Segoe UI Emoji" font-size="20px" fill="#0b7285" text-anchor="start" style="white-space: pre;" direction="ltr">Steps</text></g><g stroke-linecap="round"><g transform="translate(727.9680967964794 1065.8906459767) rotate(0 22.0044048844307 -0.24235226221389894)"><path d="M1.02 0.09 C8.34 -0.1, 36.77 -0.83, 43.91 -0.73 M0.1 -0.91 C7.34 -0.99, 36.22 0.49, 43.47 0.42" stroke="#1864ab" stroke-width="4" fill="none"></path></g></g><g transform="translate(793.7269028925336 1052.86459662388) rotate(0 27.5 13)"><text x="0" y="18" font-family="Virgil, Segoe UI Emoji" font-size="20px" fill="#1864ab" text-anchor="start" style="white-space: pre;" direction="ltr">Hooks</text></g><g stroke-linecap="round"><g transform="translate(725.7840638945997 981.3436095674874) rotate(0 20.43127994343928 -0.23391519494350632)"><path d="M-0.13 -0.9 C7.09 -0.84, 35.52 0.06, 42.51 0.27 M-1.65 1.24 C5.44 0.93, 33.71 -1.2, 41.34 -1.71" stroke="#000000" stroke-width="4" fill="none"></path></g></g><g stroke-linecap="round"><g transform="translate(828.7366741040937 199.87317896508804) rotate(0 0.42688252957088935 169.71900490788704)"><path d="M-1.07 -0.49 C-0.75 55.99, 1.58 282.96, 1.92 339.63 M0.58 -1.79 C0.78 54.84, 1.37 284.12, 1.27 341.22" stroke="#000000" stroke-width="1" fill="none"></path></g><g transform="translate(828.7366741040937 199.87317896508804) rotate(0 0.42688252957088935 169.71900490788704)"><path d="M-0.22 332.42 C1.23 331.62, 2.4 331.82, 3.77 332.8 C5.14 333.79, 7.02 336.54, 7.99 338.32 C8.96 340.11, 9.95 342.07, 9.6 343.5 C9.25 344.94, 7.29 345.82, 5.9 346.95 C4.52 348.08, 2.89 350.12, 1.32 350.27 C-0.26 350.42, -2.29 349.08, -3.55 347.86 C-4.81 346.64, -5.87 344.95, -6.23 342.94 C-6.59 340.94, -6.93 337.61, -5.73 335.82 C-4.52 334.03, -0.26 332.57, 0.99 332.22 C2.24 331.86, 1.91 333.29, 1.78 333.69 M2.81 334.19 C4.61 334.51, 6.61 335, 7.69 336.11 C8.77 337.22, 9.03 339.06, 9.29 340.85 C9.56 342.64, 10.18 345.3, 9.28 346.84 C8.39 348.38, 5.99 349.63, 3.92 350.09 C1.85 350.55, -1.61 350.48, -3.14 349.58 C-4.67 348.67, -4.46 346.39, -5.24 344.66 C-6.03 342.93, -8.25 340.91, -7.84 339.18 C-7.43 337.45, -4.53 335.09, -2.79 334.29 C-1.06 333.5, 1.84 334.83, 2.57 334.41 C3.3 334, 1.65 331.68, 1.61 331.82" stroke="none" stroke-width="0" fill="#000000"></path></g></g><g transform="translate(791.542869990654 966.9755437637276) rotate(0 61 13)"><text x="0" y="18" font-family="Virgil, Segoe UI Emoji" font-size="20px" fill="#000000" text-anchor="start" style="white-space: pre;" direction="ltr">Group steps</text></g><g stroke-linecap="round" transform="translate(724.9348886255061 226.81715924954938) rotate(0 109 29)"><path d="M1.22 0.36 L219.05 -0.65 L216.15 59.62 L-0.22 59.95" stroke="none" stroke-width="0" fill="#ffffff"></path><path d="M0.7 -0.39 C63.36 -1.8, 122.75 -1.62, 218.41 -0.2 M0.58 -0.38 C82.1 0.51, 164.68 0.86, 218.55 0.57 M218.41 -1.21 C217.29 14.46, 215.8 32.27, 217.31 56.85 M217.95 -0.32 C218.26 21.56, 216.82 42.31, 218.81 57 M217.83 57.61 C171.7 58.83, 126.95 61.11, 0.66 56.42 M218.63 57.34 C148.78 56.79, 79.41 57.43, 0.55 58.86 M-1.22 56.64 C-1.58 43.11, -0.21 26.69, -0.5 -0.11 M0.13 58.63 C0.58 38.19, -0.47 18.25, 0.75 0.65" stroke="#1864ab" stroke-width="1" fill="none"></path></g><g transform="translate(729.9348886255061 244.31715924954938) rotate(0 104 11.5)"><text x="104" y="17" font-family="Virgil, Segoe UI Emoji" font-size="20px" fill="#1864ab" text-anchor="middle" style="white-space: pre;" direction="ltr">$beforeListen()</text></g><g stroke-linecap="round" transform="translate(722.7386402565371 302.8171592495494) rotate(0 109 29)"><path d="M-0.02 -1.58 L217.33 0.62 L217.56 58.07 L-1.94 56.46" stroke="none" stroke-width="0" fill="#ffffff"></path><path d="M-0.32 -0.08 C83.14 -0.63, 165.31 0.31, 217.26 0.77 M0.24 0.33 C66.57 0.67, 132.69 -0.69, 217.23 0.57 M216.99 1.61 C216.77 19.12, 218.61 36.32, 216.65 59.35 M217.7 -0.45 C217.73 12.44, 218.77 25.65, 218.57 57.52 M217.61 59.29 C165.11 56.83, 112.48 58.16, 0.89 57.39 M218.76 57.36 C172.22 58.08, 128.82 57.72, -0.23 58.39 M-1.67 56.53 C1.53 47.24, -1.09 35.15, -0.36 0.7 M-0.68 58.26 C0.37 36.56, 0.54 12.53, 0.29 -0.84" stroke="#0b7285" stroke-width="1" fill="none"></path></g><g transform="translate(727.7386402565371 308.3171592495494) rotate(0 104 23)"><text x="104" y="17" font-family="Virgil, Segoe UI Emoji" font-size="20px" fill="#0b7285" text-anchor="middle" style="white-space: pre;" direction="ltr">bind Http/Https </text><text x="104" y="40" font-family="Virgil, Segoe UI Emoji" font-size="20px" fill="#0b7285" text-anchor="middle" style="white-space: pre;" direction="ltr">Servers</text></g><g stroke-linecap="round" transform="translate(722.9348886255061 375.8171592495494) rotate(0 109 29)"><path d="M-0.09 -1.11 L217.56 0.24 L219.53 56.71 L-0.95 58.46" stroke="none" stroke-width="0" fill="#ffffff"></path><path d="M-0.98 0.32 C76.15 1.26, 148.49 1.14, 218.31 1.21 M0.61 0.18 C50.71 -1.92, 100.67 -0.92, 217.65 0.33 M217.18 -1.23 C219.53 15.34, 218.85 32.69, 219.76 58.82 M217.42 0.14 C217.95 19.81, 217.44 40.2, 218 58.01 M217.66 57.83 C167.38 59.53, 119.4 58.92, 0.3 56.73 M217.28 58.49 C154.33 57.01, 91.56 56.63, -0.07 58.44 M1.16 59.51 C1.62 41.18, 0.67 21.41, 0.12 -0.15 M-0.4 57.86 C0.59 39.46, 1.23 20.62, 0.31 0.6" stroke="#1864ab" stroke-width="1" fill="none"></path></g><g transform="translate(727.9348886255061 393.3171592495494) rotate(0 104 11.5)"><text x="104" y="17" font-family="Virgil, Segoe UI Emoji" font-size="20px" fill="#1864ab" text-anchor="middle" style="white-space: pre;" direction="ltr">$afterListen()</text></g><g stroke-linecap="round" transform="translate(723.9348886255061 450.81715924954926) rotate(0 109 29)"><path d="M1.82 1.9 L218.23 1.62 L219.05 59.2 L-1.31 56.84" stroke="none" stroke-width="0" fill="#ffffff"></path><path d="M-0.21 -0.83 C70.8 0.61, 142.9 2.03, 219.48 0.23 M0.36 -0.55 C76.73 0.11, 152.17 0.89, 217.99 0.62 M216.71 0.3 C217.32 10.89, 217.95 24.35, 219.34 57.99 M217.2 0.98 C218.3 14.57, 218.22 30.49, 218.04 58.03 M218.84 57.42 C171.47 57.7, 127.55 60.1, 1.03 58.68 M218.81 58.56 C163.79 57.89, 108.6 59.07, 0.02 57.32 M-0.61 58.31 C-1.45 42.62, -2.01 29.58, 0.06 -1.95 M-0.32 57.37 C-0.34 36.22, -0.56 14.89, -0.53 0.44" stroke="#1864ab" stroke-width="1" fill="none"></path></g><g transform="translate(728.9348886255061 468.31715924954926) rotate(0 104 11.5)"><text x="104" y="17" font-family="Virgil, Segoe UI Emoji" font-size="20px" fill="#1864ab" text-anchor="middle" style="white-space: pre;" direction="ltr">$onReady()</text></g><g transform="translate(281.3562503386195 10) rotate(0 240 23)"><text x="0" y="32" font-family="Virgil, Segoe UI Emoji" font-size="36px" fill="#000000" text-anchor="start" style="white-space: pre;" direction="ltr">Ts.ED application Lifecycle</text></g><g stroke-linecap="round" transform="translate(635.1145909499253 593.5013414996687) rotate(0 197.5 26)"><path d="M0.08 1.09 C135.12 -1.1, 268.36 -0.34, 394.17 -0.4 M0.1 0.08 C109.98 0.12, 218.87 0.48, 394.8 0.44 M393.07 -1.59 C393.75 18.71, 396.06 33.68, 395.86 50.99 M395.7 -0.81 C395.22 18.83, 394.21 36.33, 394.79 52.77 M394.28 51.05 C294.33 48.83, 194.45 48.9, 0.61 52.5 M395.01 51.64 C304.57 50.44, 214.57 49.47, -0.14 52.01 M-1.13 51.01 C-1.03 39.03, 0.99 28.01, 0.52 1.8 M-0.66 51.29 C0.94 37.03, 1.14 24.46, -0.59 -0.37" stroke="#a61e4d" stroke-width="1" fill="none"></path></g><g transform="translate(640.1145909499253 608.0013414996687) rotate(0 192.5 11.5)"><text x="192.5" y="17" font-family="Virgil, Segoe UI Emoji" font-size="20px" fill="#a61e4d" text-anchor="middle" style="white-space: pre;" direction="ltr">PlatformBuilder.stop()</text></g><g stroke-linecap="round"><g transform="translate(826.4163764285129 653.5573612152074) rotate(0 0.9388077569030315 100.30325740021294)"><path d="M1.14 0.74 C1.3 33.93, 1.4 166.23, 1.61 199.25 M0.28 0.08 C0.23 33.43, 0.42 167.25, 0.73 200.53" stroke="#000000" stroke-width="1" fill="none"></path></g><g transform="translate(826.4163764285129 653.5573612152074) rotate(0 0.9388077569030315 100.30325740021294)"><path d="M3.02 192.22 C4.95 192.65, 7.53 194.83, 8.41 196.27 C9.3 197.72, 8.71 199.25, 8.33 200.88 C7.96 202.51, 7.2 204.71, 6.15 206.07 C5.09 207.42, 3.68 208.72, 2.02 209.03 C0.35 209.34, -2.25 209.08, -3.84 207.92 C-5.44 206.76, -7.04 203.99, -7.55 202.07 C-8.05 200.14, -7.6 197.71, -6.9 196.35 C-6.19 194.99, -5.08 194.25, -3.32 193.92 C-1.56 193.6, 2.05 194.39, 3.68 194.39 C5.32 194.4, 6.46 193.89, 6.49 193.96 M-1.66 193.65 C-0.06 192.93, 2.51 192.22, 4.18 192.63 C5.86 193.04, 7.74 194.48, 8.4 196.13 C9.06 197.78, 8.59 200.56, 8.15 202.54 C7.71 204.51, 7.23 207.21, 5.76 208 C4.28 208.79, 1.1 207.8, -0.7 207.28 C-2.49 206.76, -4.05 206.09, -5.02 204.87 C-5.99 203.65, -6.19 201.43, -6.54 199.95 C-6.88 198.47, -8.19 197.1, -7.1 195.99 C-6.02 194.89, -1.02 194.05, 0 193.31 C1.01 192.57, -1.13 191.52, -1.03 191.55" stroke="none" stroke-width="0" fill="#000000"></path></g></g><g stroke-linecap="round" transform="translate(722.6145909499253 680.5013414996687) rotate(0 109 29)"><path d="M1.09 -0.8 L219.27 -0.45 L216.96 58.11 L-1.77 57.45" stroke="none" stroke-width="0" fill="#ffffff"></path><path d="M0.19 -0.72 C68.22 -2.42, 133.16 -1.55, 218.3 -0.48 M-0.76 -0.6 C68.91 -1.45, 138.9 -0.85, 218.32 0.05 M219.32 0.87 C216.45 12.65, 216.53 24.74, 216.6 56.72 M218.22 -0.43 C216.63 21.26, 218.3 42.47, 217.24 57.05 M216.48 58.03 C164.83 58.29, 115.24 56.13, -0.98 56.46 M218.68 58.49 C151.53 57.62, 86.63 57.32, 0.76 58.2 M-0.48 59.44 C1.26 44.4, 2.08 29.16, -0.8 -0.48 M-0.94 58.93 C0.94 43.82, 0.05 31.47, -0.44 -0.18" stroke="#1864ab" stroke-width="1" fill="none"></path></g><g transform="translate(727.6145909499253 698.0013414996687) rotate(0 104 11.5)"><text x="104" y="17" font-family="Virgil, Segoe UI Emoji" font-size="20px" fill="#1864ab" text-anchor="middle" style="white-space: pre;" direction="ltr">$onDestroy()</text></g><g stroke-linecap="round" transform="translate(719.2220942119868 753.3131905564861) rotate(0 109 29)"><path d="M-0.48 -1.25 L218.09 -0.3 L218.55 59.5 L1.07 57.96" stroke="none" stroke-width="0" fill="#ffffff"></path><path d="M-0.5 -0.42 C71.65 1.79, 141.25 2.5, 217.48 -0.7 M0.63 -0.82 C60.96 1.81, 119.79 1.03, 218.56 -0.38 M219.27 -0.45 C217.28 16.49, 216.55 32.21, 217.46 58.82 M218.21 -0.72 C218.49 19.5, 216.99 40.46, 218.7 58.41 M218.03 57.59 C152.59 60.16, 88.51 60.84, -0.86 57.15 M217.98 58.6 C154.1 57.2, 90.72 55.52, 0.1 57.49 M-0.22 56.17 C-1.37 37.5, 0.05 19.05, 0.91 -0.01 M0.56 57.71 C-0.9 37.91, -0.43 19.69, -0.05 0.57" stroke="#0b7285" stroke-width="1" fill="none"></path></g><g transform="translate(724.2220942119868 770.8131905564861) rotate(0 104 11.5)"><text x="104" y="17" font-family="Virgil, Segoe UI Emoji" font-size="20px" fill="#0b7285" text-anchor="middle" style="white-space: pre;" direction="ltr">close connections</text></g></svg>