<?xml version="1.0" encoding="utf-8"?>
<!-- Generator: Adobe Illustrator 16.0.4, SVG Export Plug-In . SVG Version: 6.00 Build 0)  -->
<!DOCTYPE svg PUBLIC "-//W3C//DTD SVG 1.1//EN" "http://www.w3.org/Graphics/SVG/1.1/DTD/svg11.dtd">
<svg version="1.1" id="Layer_1" xmlns="http://www.w3.org/2000/svg"  x="0px" y="0px"
	 width="528.053px" height="117.012px" viewBox="0 0 528.053 117.012" style="enable-background:new 0 0 528.053 117.012;"
	 xml:space="preserve">
<g>
	<path style="fill:#222222;" d="M133.215,81.017h-7.242l-25.945-40.184c-0.656-1.007-1.195-2.062-1.617-3.164H98.2
		c0.188,1.078,0.281,3.387,0.281,6.926v36.422h-5.906V30.603h7.664l25.242,39.551c1.055,1.641,1.734,2.766,2.039,3.375h0.141
		c-0.234-1.453-0.352-3.925-0.352-7.418V30.603h5.906V81.017z"/>
	<path style="fill:#222222;" d="M160.708,81.86c-5.321,0-9.568-1.682-12.744-5.045c-3.176-3.363-4.764-7.822-4.764-13.377
		c0-6.047,1.652-10.77,4.957-14.168c3.305-3.398,7.77-5.098,13.395-5.098c5.367,0,9.557,1.652,12.568,4.957
		c3.011,3.305,4.518,7.887,4.518,13.746c0,5.743-1.623,10.342-4.869,13.799C170.521,80.132,166.168,81.86,160.708,81.86z
		 M161.129,49.024c-3.704,0-6.633,1.26-8.789,3.779c-2.157,2.52-3.234,5.994-3.234,10.424c0,4.266,1.09,7.629,3.27,10.09
		s5.098,3.691,8.754,3.691c3.727,0,6.592-1.207,8.596-3.621c2.004-2.414,3.006-5.848,3.006-10.301c0-4.5-1.002-7.968-3.006-10.406
		C167.721,50.243,164.856,49.024,161.129,49.024z"/>
	<path style="fill:#222222;" d="M218.575,81.017h-5.766v-6.117h-0.141c-2.672,4.641-6.797,6.961-12.375,6.961
		c-4.523,0-8.139-1.611-10.846-4.834s-4.061-7.611-4.061-13.166c0-5.953,1.5-10.723,4.5-14.309c3-3.586,6.996-5.379,11.988-5.379
		c4.945,0,8.543,1.946,10.793,5.836h0.141V27.72h5.766V81.017z M212.809,64.739v-5.309c0-2.906-0.961-5.367-2.883-7.383
		c-1.922-2.016-4.359-3.023-7.312-3.023c-3.516,0-6.281,1.289-8.297,3.867c-2.016,2.579-3.023,6.141-3.023,10.688
		c0,4.148,0.967,7.424,2.9,9.826s4.529,3.604,7.787,3.604c3.211,0,5.818-1.16,7.822-3.48S212.809,68.278,212.809,64.739z"/>
	<path style="fill:#222222;" d="M259.18,64.458h-25.418c0.093,4.008,1.172,7.102,3.234,9.281c2.062,2.18,4.898,3.27,8.508,3.27
		c4.055,0,7.781-1.336,11.18-4.008v5.414c-3.164,2.297-7.348,3.445-12.551,3.445c-5.086,0-9.083-1.635-11.988-4.904
		c-2.906-3.27-4.359-7.869-4.359-13.799c0-5.602,1.587-10.166,4.764-13.693c3.176-3.527,7.119-5.291,11.83-5.291
		s8.355,1.524,10.934,4.57c2.578,3.047,3.867,7.277,3.867,12.691V64.458z M253.274,59.571c-0.023-3.328-0.826-5.918-2.408-7.77
		c-1.582-1.851-3.779-2.777-6.592-2.777c-2.719,0-5.027,0.973-6.926,2.918c-1.898,1.946-3.071,4.488-3.516,7.629H253.274z"/>
</g>
<g>
	<path style="fill:#222222;" d="M60.401,94.343C51.407,94.226,46.91,89.685,46.91,80.72V67.536c0-5.917-2.285-9.023-6.855-9.316
		v-5.098c4.57-0.292,6.855-3.457,6.855-9.492V30.798c0-9.082,4.497-13.682,13.491-13.799v5.625
		c-4.658,0.117-6.987,3.018-6.987,8.701v12.876c0,6.152-2.197,9.932-6.592,11.338v0.176c4.395,1.318,6.592,5.069,6.592,11.25v12.7
		c0,3.252,0.52,5.574,1.56,6.965c1.04,1.391,2.849,2.116,5.427,2.175V94.343z"/>
</g>
<g>
	<path style="fill:#222222;" d="M486.259,59.22c-4.57,0.293-6.855,3.399-6.855,9.316V81.72c0,8.965-4.482,13.506-13.447,13.623
		v-5.537c2.549-0.059,4.357-0.791,5.428-2.197c1.068-1.406,1.604-3.721,1.604-6.943v-12.7c0-6.181,2.183-9.932,6.548-11.25v-0.176
		c-4.365-1.406-6.548-5.186-6.548-11.338V32.325c0-5.684-2.344-8.584-7.031-8.701v-5.625c8.965,0.117,13.447,4.717,13.447,13.799
		V44.63c0,6.036,2.285,9.2,6.855,9.492V59.22z"/>
</g>
<g>
	<path style="fill:#222222;" d="M280.171,33.802v47.215h-3.445V33.802h-14.555v-3.199h32.555v3.199H280.171z"/>
	<path style="fill:#222222;" d="M305.343,88.364c-1.313,3.234-2.766,5.637-4.359,7.207c-1.594,1.57-3.645,2.355-6.152,2.355
		c-1.055,0-1.992-0.164-2.812-0.492V94.2c0.844,0.328,1.828,0.492,2.953,0.492c2.883,0,5.156-1.992,6.82-5.977l3.34-7.98
		l-13.641-35.719h3.621l10.863,29.32c0.234,0.633,0.398,1.113,0.492,1.441c0.093,0.445,0.199,0.844,0.316,1.195h0.141l0.844-2.426
		l11.602-29.531h3.516L305.343,88.364z"/>
	<path style="fill:#222222;" d="M332.554,74.618h-0.141v22.957h-3.234V45.017h3.234v7.418h0.141
		c1.289-2.648,3.134-4.693,5.537-6.135c2.402-1.441,5.045-2.162,7.928-2.162c4.57,0,8.139,1.577,10.705,4.729
		c2.566,3.152,3.85,7.436,3.85,12.85c0,6.024-1.471,10.893-4.412,14.607c-2.941,3.715-6.826,5.572-11.654,5.572
		C339.116,81.896,335.132,79.47,332.554,74.618z M332.414,61.224v4.535c0,3.609,1.137,6.709,3.41,9.299
		c2.273,2.59,5.261,3.885,8.965,3.885c3.679,0,6.667-1.576,8.965-4.729c2.297-3.152,3.445-7.295,3.445-12.428
		c0-4.5-1.055-8.074-3.164-10.723c-2.109-2.648-4.922-3.973-8.438-3.973c-4.196,0-7.441,1.406-9.738,4.219
		C333.562,54.122,332.414,57.427,332.414,61.224z"/>
	<path style="fill:#222222;" d="M370.277,63.157c0,4.945,1.143,8.812,3.428,11.602c2.285,2.79,5.419,4.184,9.404,4.184
		c4.031,0,7.968-1.488,11.812-4.465v3.445c-3.727,2.649-7.887,3.973-12.48,3.973c-4.641,0-8.391-1.664-11.25-4.992
		c-2.86-3.328-4.289-8.027-4.289-14.098c0-5.25,1.494-9.673,4.482-13.271c2.988-3.598,6.873-5.396,11.654-5.396
		c4.477,0,7.91,1.57,10.301,4.711c2.391,3.141,3.586,7.43,3.586,12.867v1.441H370.277z M393.55,60.204
		c-0.141-4.148-1.137-7.371-2.988-9.668c-1.852-2.297-4.407-3.445-7.664-3.445c-3.375,0-6.17,1.131-8.385,3.393
		c-2.215,2.262-3.581,5.502-4.096,9.721H393.55z"/>
	<path style="fill:#222222;" d="M431.414,81.017v-6.539h-0.141c-1.172,2.273-2.906,4.078-5.203,5.414
		c-2.297,1.336-4.887,2.004-7.77,2.004c-4.43,0-8.045-1.617-10.846-4.852c-2.801-3.234-4.201-7.699-4.201-13.395
		c0-5.812,1.529-10.517,4.588-14.115c3.059-3.598,7.025-5.396,11.9-5.396c5.391,0,9.234,2.215,11.531,6.645h0.141V27.72h3.234
		v53.297H431.414z M431.414,59.114c0-3.352-1.061-6.193-3.182-8.525c-2.122-2.332-4.975-3.498-8.561-3.498
		c-3.774,0-6.891,1.447-9.352,4.342c-2.461,2.895-3.691,6.873-3.691,11.936c0,4.969,1.107,8.807,3.322,11.514
		s5.068,4.061,8.561,4.061c4.101,0,7.277-1.271,9.527-3.814c2.25-2.543,3.375-5.643,3.375-9.299V59.114z"/>
</g>
</svg>
